<svg width="148" height="75" viewBox="0 0 148 60" fill="none"
  xmlns="http://www.w3.org/2000/svg">
  <path class="st1" d="M6.30859 51.0469V61H3.91602V51.0469H6.30859ZM16.3096 51.0469V61H13.917L10.3965 54.8066V61H7.99707V51.0469H10.3965L13.917 57.2402V51.0469H16.3096ZM22.4414 51.0469V61H20.042V51.0469H22.4414ZM25.4355 51.0469V52.8994H17.1162V51.0469H25.4355ZM33.3037 59.1543V61H27.999V59.1543H33.3037ZM28.8535 51.0469V61H26.4541V51.0469H28.8535ZM32.6201 54.998V56.7822H27.999V54.998H32.6201ZM33.3242 51.0469V52.8994H27.999V51.0469H33.3242ZM40.8643 59.1543V61H35.833V59.1543H40.8643ZM36.6875 51.0469V61H34.2881V51.0469H36.6875ZM48.4521 59.1543V61H43.4209V59.1543H48.4521ZM44.2754 51.0469V61H41.876V51.0469H44.2754ZM52.0137 51.0469V61H49.6211V51.0469H52.0137ZM61.8438 55.6816V59.7695C61.6751 59.9564 61.4154 60.1569 61.0645 60.3711C60.7181 60.5807 60.2806 60.7607 59.752 60.9111C59.2233 61.0615 58.6012 61.1367 57.8857 61.1367C57.2249 61.1367 56.6257 61.0319 56.0879 60.8223C55.5501 60.6081 55.0876 60.2959 54.7002 59.8857C54.3174 59.471 54.0212 58.9652 53.8115 58.3682C53.6064 57.7666 53.5039 57.0785 53.5039 56.3037V55.75C53.5039 54.9753 53.6087 54.2871 53.8184 53.6855C54.028 53.084 54.3219 52.5781 54.7002 52.168C55.083 51.7533 55.5319 51.4388 56.0469 51.2246C56.5664 51.0104 57.1361 50.9033 57.7559 50.9033C58.6719 50.9033 59.417 51.0492 59.9912 51.3408C60.5654 51.6279 61.0007 52.0267 61.2969 52.5371C61.5931 53.043 61.7731 53.6286 61.8369 54.2939H59.5332C59.4876 53.9658 59.401 53.6878 59.2734 53.46C59.1504 53.2275 58.9727 53.0521 58.7402 52.9336C58.5078 52.8105 58.207 52.749 57.8379 52.749C57.5508 52.749 57.2887 52.8105 57.0518 52.9336C56.8193 53.0566 56.6211 53.2435 56.457 53.4941C56.293 53.7402 56.1654 54.0501 56.0742 54.4238C55.9876 54.7975 55.9443 55.235 55.9443 55.7363V56.3037C55.9443 56.8005 55.9854 57.2357 56.0674 57.6094C56.154 57.9831 56.2816 58.2952 56.4502 58.5459C56.6234 58.792 56.8421 58.9788 57.1064 59.1064C57.3753 59.2295 57.6921 59.291 58.0566 59.291C58.3118 59.291 58.5306 59.2705 58.7129 59.2295C58.8952 59.1839 59.0456 59.1292 59.1641 59.0654C59.2871 58.9971 59.3805 58.9333 59.4443 58.874V57.3291H57.7764V55.6816H61.8438ZM70.0947 59.1543V61H64.79V59.1543H70.0947ZM65.6445 51.0469V61H63.2451V51.0469H65.6445ZM69.4111 54.998V56.7822H64.79V54.998H69.4111ZM70.1152 51.0469V52.8994H64.79V51.0469H70.1152ZM79.3916 51.0469V61H76.999L73.4785 54.8066V61H71.0791V51.0469H73.4785L76.999 57.2402V51.0469H79.3916ZM85.5234 51.0469V61H83.124V51.0469H85.5234ZM88.5176 51.0469V52.8994H80.1982V51.0469H88.5176ZM101.034 55.8252V56.2285C101.034 56.9896 100.927 57.6732 100.713 58.2793C100.503 58.8809 100.205 59.3958 99.8174 59.8242C99.43 60.248 98.972 60.5739 98.4434 60.8018C97.9147 61.0251 97.3314 61.1367 96.6934 61.1367C96.0508 61.1367 95.4629 61.0251 94.9297 60.8018C94.401 60.5739 93.9408 60.248 93.5488 59.8242C93.1615 59.3958 92.8607 58.8809 92.6465 58.2793C92.4368 57.6732 92.332 56.9896 92.332 56.2285V55.8252C92.332 55.0641 92.4368 54.3805 92.6465 53.7744C92.8607 53.1683 93.1592 52.6533 93.542 52.2295C93.9294 51.8011 94.3874 51.4753 94.916 51.252C95.4492 51.0241 96.0371 50.9102 96.6797 50.9102C97.3177 50.9102 97.901 51.0241 98.4297 51.252C98.9629 51.4753 99.4232 51.8011 99.8105 52.2295C100.198 52.6533 100.499 53.1683 100.713 53.7744C100.927 54.3805 101.034 55.0641 101.034 55.8252ZM98.6006 56.2285V55.8115C98.6006 55.3193 98.5573 54.8864 98.4707 54.5127C98.3887 54.1344 98.2656 53.8177 98.1016 53.5625C97.9375 53.3073 97.7347 53.1159 97.4932 52.9883C97.2562 52.8561 96.985 52.79 96.6797 52.79C96.3607 52.79 96.0827 52.8561 95.8457 52.9883C95.6087 53.1159 95.4105 53.3073 95.251 53.5625C95.0915 53.8177 94.9707 54.1344 94.8887 54.5127C94.8112 54.8864 94.7725 55.3193 94.7725 55.8115V56.2285C94.7725 56.7161 94.8112 57.1491 94.8887 57.5273C94.9707 57.901 95.0915 58.2178 95.251 58.4775C95.415 58.7373 95.6156 58.9333 95.8525 59.0654C96.0941 59.1976 96.3743 59.2637 96.6934 59.2637C96.9987 59.2637 97.2699 59.1976 97.5068 59.0654C97.7438 58.9333 97.9421 58.7373 98.1016 58.4775C98.2656 58.2178 98.3887 57.901 98.4707 57.5273C98.5573 57.1491 98.6006 56.7161 98.6006 56.2285ZM104.678 51.0469V61H102.278V51.0469H104.678ZM108.547 55.1895V57.0352H103.994V55.1895H108.547ZM108.937 51.0469V52.8994H103.994V51.0469H108.937ZM112.334 51.0469V61H109.935V51.0469H112.334ZM116.203 55.1895V57.0352H111.65V55.1895H116.203ZM116.593 51.0469V52.8994H111.65V51.0469H116.593ZM120.141 51.0469V61H117.748V51.0469H120.141ZM127.489 57.6299H129.882C129.85 58.3226 129.663 58.9333 129.321 59.4619C128.979 59.9906 128.506 60.403 127.899 60.6992C127.298 60.9909 126.587 61.1367 125.767 61.1367C125.101 61.1367 124.507 61.0251 123.982 60.8018C123.463 60.5785 123.021 60.2572 122.656 59.8379C122.296 59.4186 122.021 58.9105 121.829 58.3135C121.642 57.7165 121.549 57.0443 121.549 56.2969V55.7568C121.549 55.0094 121.647 54.3372 121.843 53.7402C122.043 53.1387 122.326 52.6283 122.69 52.209C123.06 51.7852 123.502 51.4616 124.017 51.2383C124.532 51.015 125.104 50.9033 125.732 50.9033C126.598 50.9033 127.33 51.0583 127.927 51.3682C128.524 51.6781 128.986 52.1042 129.314 52.6465C129.643 53.1842 129.836 53.7972 129.896 54.4854H127.503C127.494 54.1117 127.43 53.7995 127.312 53.5488C127.193 53.2936 127.006 53.1022 126.751 52.9746C126.496 52.847 126.156 52.7832 125.732 52.7832C125.436 52.7832 125.179 52.8379 124.96 52.9473C124.741 53.0566 124.559 53.2298 124.413 53.4668C124.267 53.7038 124.158 54.0114 124.085 54.3896C124.017 54.7633 123.982 55.2145 123.982 55.7432V56.2969C123.982 56.8255 124.014 57.2767 124.078 57.6504C124.142 58.0241 124.244 58.3294 124.386 58.5664C124.527 58.8034 124.709 58.9788 124.933 59.0928C125.16 59.2021 125.438 59.2568 125.767 59.2568C126.131 59.2568 126.439 59.1999 126.689 59.0859C126.94 58.9674 127.134 58.7897 127.271 58.5527C127.407 58.3112 127.48 58.0036 127.489 57.6299ZM137.866 59.1543V61H132.562V59.1543H137.866ZM133.416 51.0469V61H131.017V51.0469H133.416ZM137.183 54.998V56.7822H132.562V54.998H137.183ZM137.887 51.0469V52.8994H132.562V51.0469H137.887Z" fill="#000000"></path>
  <path class="st0" d="M68.5504 34.8747V18.8662H74.8417V34.8757L71.7134 37.6411L68.5504 34.8747Z" fill="#FFCB5A"></path>
  <path class="st0" d="M71.696 16.5393C70.1502 16.5393 68.8932 15.288 68.8932 13.7516C68.8932 12.2142 70.1512 10.9629 71.696 10.9629C73.2408 10.9629 74.4988 12.2142 74.4988 13.7516C74.4988 15.289 73.2408 16.5393 71.696 16.5393Z" fill="#FFCB5A"></path>
  <path class="st0" d="M71.696 45.1466C59.1818 45.1466 49 35.0198 49 22.5733C49 10.1267 59.1818 0 71.696 0C84.2103 0 94.3921 10.1267 94.3921 22.5733C94.3921 35.0198 84.2103 45.1466 71.696 45.1466ZM71.7154 41.8596L75.2539 38.731C82.8339 37.0809 88.3273 30.298 88.3273 22.5733C88.3273 13.4522 80.8667 6.03199 71.695 6.03199C62.5233 6.03199 55.0628 13.4522 55.0628 22.5733C55.0628 30.299 60.5562 37.0819 68.1361 38.731L71.7154 41.8596Z" fill="#FFCB5A"></path>
</svg>